<svg width="20" height="20" viewBox="0 0 20 20" fill="none" xmlns="http://www.w3.org/2000/svg">
<path d="M19.0969 7.41866C19.0392 7.24885 18.9331 7.09964 18.7916 6.98945C18.6501 6.87926 18.4795 6.81292 18.3007 6.79861L13.0716 6.3831L10.8087 1.37409C10.7367 1.21276 10.6195 1.07573 10.4712 0.979546C10.323 0.883361 10.1501 0.832128 9.97344 0.832031C9.79675 0.831934 9.62381 0.882977 9.47548 0.978999C9.32715 1.07502 9.20979 1.21192 9.13755 1.37317L6.87473 6.3831L1.64558 6.79861C1.46989 6.81253 1.30193 6.87677 1.16179 6.98364C1.02165 7.09052 0.91527 7.23551 0.855374 7.40126C0.795479 7.56701 0.784605 7.74651 0.824053 7.91828C0.8635 8.09005 0.951599 8.24682 1.07781 8.36983L4.94212 12.1369L3.57544 18.0549C3.53394 18.234 3.54724 18.4215 3.61361 18.593C3.67999 18.7645 3.79637 18.9121 3.94765 19.0166C4.09894 19.1211 4.27815 19.1777 4.46202 19.1791C4.6459 19.1805 4.82594 19.1266 4.97881 19.0244L9.97315 15.6949L14.9675 19.0244C15.1237 19.1282 15.308 19.1816 15.4955 19.1774C15.683 19.1733 15.8647 19.1119 16.0162 19.0014C16.1678 18.8909 16.2819 18.7367 16.3431 18.5595C16.4044 18.3822 16.4099 18.1904 16.3589 18.01L14.6813 12.1397L18.8419 8.39551C19.1143 8.1497 19.2143 7.76629 19.0969 7.41866Z" fill="#F3CD03"/>
</svg>
